/* XPM */
static char *bush_1__Photoroom1723382776[] = {
/* columns rows colors chars-per-pixel */
"64 64 237 2 ",
"   c None",
".  c #000A00",
"X  c #011100",
"o  c #051C01",
"O  c #0C1E08",
"+  c #121D11",
"@  c #0B2405",
"#  c #0E2509",
"$  c #0B2704",
"%  c #13250D",
"&  c #132B0C",
"*  c #17330B",
"=  c #162D11",
"-  c #192C13",
";  c #192716",
":  c #1B3315",
">  c #1F3419",
",  c #1E3819",
"<  c #1B3713",
"1  c #0E3202",
"2  c #21361C",
"3  c #233A1D",
"4  c #233E17",
"5  c #202F1A",
"6  c #253422",
"7  c #293625",
"8  c #273C21",
"9  c #2A3C25",
"0  c #2C3D2A",
"q  c #2C332B",
"w  c #333D32",
"e  c #242B23",
"r  c #1F4015",
"t  c #26431C",
"y  c #29441E",
"u  c #2B4C1C",
"i  c #234317",
"p  c #30541E",
"a  c #274221",
"s  c #2B4324",
"d  c #2D4B22",
"f  c #2E4429",
"g  c #2F482A",
"h  c #31452C",
"j  c #334B2D",
"k  c #334C28",
"l  c #35532C",
"z  c #39552E",
"x  c #3A5B2C",
"c  c #345626",
"v  c #354332",
"b  c #364D31",
"n  c #3A4D34",
"m  c #3E4C3A",
"M  c #384635",
"N  c #375032",
"B  c #3A5334",
"V  c #3E5A33",
"C  c #3E5539",
"Z  c #3E593A",
"A  c #2C5022",
"S  c #3D612C",
"D  c #3A6025",
"F  c #3E6232",
"G  c #414E3D",
"H  c #415C35",
"J  c #41553C",
"K  c #435C3C",
"L  c #405534",
"P  c #415F2B",
"I  c #42672D",
"U  c #436435",
"Y  c #45633B",
"T  c #49643C",
"R  c #4B6B3C",
"E  c #496A35",
"W  c #516E3C",
"Q  c #4D7236",
"!  c #52753D",
"~  c #577C3C",
"^  c #3F4B41",
"/  c #424A41",
"(  c #455442",
")  c #465D41",
"_  c #4A5D44",
"`  c #4D5C49",
"'  c #4B524A",
"]  c #525E4F",
"[  c #535F51",
"{  c #4B6343",
"}  c #4E6B43",
"|  c #4E6449",
" . c #4F6B48",
".. c #466140",
"X. c #516C45",
"o. c #50654B",
"O. c #536B4C",
"+. c #4E7542",
"@. c #527345",
"#. c #557A44",
"$. c #55724A",
"%. c #5A754E",
"&. c #557949",
"*. c #5B7C4C",
"=. c #587843",
"-. c #556452",
";. c #596655",
":. c #566D51",
">. c #5A6C54",
",. c #5D675A",
"<. c #577252",
"1. c #5B7354",
"2. c #5E7B54",
"3. c #5E7459",
"4. c #5F7959",
"5. c #637F4C",
"6. c #617C56",
"7. c #62755C",
"8. c #637C5B",
"9. c #657A5A",
"0. c #667563",
"q. c #697665",
"w. c #667C61",
"e. c #697B64",
"r. c #717A6E",
"t. c #59863B",
"y. c #52822C",
"u. c #628639",
"i. c #6A973D",
"p. c #5C8344",
"a. c #5D824C",
"s. c #578845",
"d. c #5F8055",
"f. c #638C44",
"g. c #638C4D",
"h. c #69864F",
"j. c #669549",
"k. c #638354",
"l. c #6A8455",
"z. c #658A55",
"x. c #6B8D55",
"c. c #66835B",
"v. c #69835C",
"b. c #6B8B5C",
"n. c #678C58",
"m. c #6B9254",
"M. c #6D925D",
"N. c #689656",
"B. c #74935C",
"V. c #749C5C",
"C. c #729756",
"Z. c #748B5F",
"A. c #78A44D",
"S. c #79A25D",
"D. c #79A359",
"F. c #678260",
"G. c #6B8364",
"H. c #6D8B63",
"J. c #6E8569",
"K. c #728C65",
"L. c #71846C",
"P. c #738C6B",
"I. c #7C8E6C",
"U. c #6E9562",
"Y. c #739363",
"T. c #769C64",
"R. c #7A9C63",
"E. c #75936A",
"W. c #79946C",
"Q. c #7A9B6C",
"!. c #77986B",
"~. c #758B71",
"^. c #798775",
"/. c #769370",
"(. c #7C9473",
"). c #7C9774",
"_. c #7CA363",
"`. c #7BA36A",
"'. c #7FA073",
"]. c #819F5F",
"[. c #84AD5E",
"{. c #829C6E",
"}. c #80956E",
"|. c #849C73",
" X c #849D7B",
".X c #859579",
"XX c #818F7C",
"oX c #84A665",
"OX c #83AB65",
"+X c #8BAC66",
"@X c #85AA6B",
"#X c #8BAD6C",
"$X c #82A36C",
"%X c #87B26B",
"&X c #8DB36D",
"*X c #89B364",
"=X c #92B56D",
"-X c #83A374",
";X c #86AA75",
":X c #8DAC76",
">X c #86A679",
",X c #8BAA7C",
"<X c #8BA577",
"1X c #91AC71",
"2X c #90AC7A",
"3X c #8DB276",
"4X c #92B473",
"5X c #9AB47C",
"6X c #97BA7A",
"7X c #99C27A",
"8X c #A3C27E",
"9X c #899884",
"0X c #919F85",
"qX c #8CA383",
"wX c #8DAA85",
"eX c #93AA84",
"rX c #95AC8B",
"tX c #96A687",
"yX c #8CB281",
"uX c #96B583",
"iX c #9DBC84",
"pX c #9DB58C",
"aX c #9CBA8B",
"sX c #99B685",
"dX c #9BB495",
"fX c #A3BE8B",
"gX c #A3AD98",
"hX c #A4BD92",
"jX c #A6B999",
"kX c #ACBCA0",
"lX c #9CC387",
"zX c #A6C88B",
"xX c #ABC498",
"cX c #B1C59C",
"vX c #B6D19E",
"bX c #B3CDA8",
"nX c #C2D5A8",
/* pixels */
"                                                                                                                                ",
"                                                                                                                                ",
"                                                                                                                                ",
"                                                                                                                                ",
"                                                                                                                                ",
"                                                                                                                                ",
"                                                                                                                                ",
"                                                                                                                                ",
"                                                          cXjXsXfX5XzXvXzXxXbX                                                  ",
"                                                cXnXcXxX5XfX1X6X6X+XoX+X*X7XzXzXdXjXrX                                          ",
"                                            kXhXfXcX1X1X+X8X&X*Xu.i.].[.7X7X7X3XfXdX,XrX                                        ",
"                                          cXfX5X1X=X+Xu.D.+X=XA.i.i.i.A.D.D.`.lXoXuXzXhXuXdX                                    ",
"                                      kXfX<X1X2X].=X+Xu.s.f.%X7X[.i.y.j.`.[.D.7X@X;X3X;X{.!.sX                                  ",
"                                      cX5XZ.B.oX6X=XC.C.s.j._.lXj.i.y.N.%XD.j.D.lX@XoX%XiX5XfXxX                                ",
"                                      hX5X5.C.oXOXS.t.g.N.T.U.`.t.N.s.s.N.j.s.`.C.S.7X6X6XOX4XuXgX                              ",
"                                tX2XfX2X2Xh.V.4XQ x.V.#.`.'.yXU.y.N.z.s.S.S.s.s.t.C.3X_.4X4X7X4XpX                              ",
"                            gX.XI.5X;XR.-XR.vX,X*.*.F &.n.`.T.B.&.U.&.&.M.#.D Q Q T.V.m.7X@X4X3X$X;XjX                          ",
"                            tX<XW k.Q.Q.Q.eX>X>X!.U.Y.2.#.#.'.k.+.+.F 1 s.z.'.;Xp #._.T._.s.lXzXS.oXzXbX                        ",
"                            2XtXl.*.k.b.d.'.'.uXc c b.!.@.I c.! i c x &.n.n.+.M.m.a.m.p.p.z.lX%XN._.aXxX                        ",
"                          gX.XtXl.z.E T.n.d./.n.V r d yX!.M.k.@.V F A &.F @.S z.a.g.a.Q D m.6XS.j.j.>XwXdX                      ",
"                        tX<X}.|.k.x.2.k.n.c.,X} H.%.V -Xb.5.*.'.&.+.&.l $.>X'.a.* U S ! ! @XB.V.t.t._.Q.qX                      ",
"                      tXXX|.Z.l.Y.1 A d.H.l R E.R &.+.k.*.@.n.;X&.} n.c.n.,Xz.u p Q c *.M.:X#._.j.j.oX-XrX                      ",
"                      <X}.}.h.=.R R U.c.+.H.H.} B d i R c.-X>XH.aXH.H.U.} Q.z.k.R Y.B.k.b.B.#._.D.[.@XR.eX                      ",
"                      tX.X{.5.W =.l.} &.* a 2.V V a 1 } < %.!.|.U.x d.B &.E.!.U } k.U.I T.aXT.#._.OXS.m.,XzX                    ",
"                    .X.X}.h.5.P l.$.d W & Y } Y 2.} B 2.O.W sX>XqXd.+.P.!.>X} d @.&.E.+.*.&.Y a.OX%Xf.~ uX2X(.                  ",
"                    .XP.9.=.Z.5.k.K.V X.} v.2.G.g k E.rX}.u 4 >X!...l &.} H.c.V d V c.2.V Y z.c I ~ m.R.2XfXjX                  ",
"                    0X}.5.T 5.E X.K.%.K.2.<.{ <.g O.1.E.K X.5.X.B B t g a c.).F $.} V c.V H K.d ! m.#X_.Z.x.<X                  ",
"                  9X>.1.X.5.V.*.l.b.P.W.k a { { 8.4.& X.4 %.6.T A  .x } Y  .<.*  .O.1 l V } ).v.x ! =.B.iX{.P.                  ",
"                  gX(.9X).b.*.u z T c.(.{  .P.J.4.8.4.4.K } * l.%.{ @ g X.<.6.$.d.G.....g V  .<.U &.*.x.1XQ.W.                  ",
"                  9Xw.e.6.W I u i X.T c.w.P.w.4.Z 8.).{ { } K X.} -X<.k $ , Y 4./... .P. .Z N j !.&.@.#.n.:XpX                  ",
"                  tX0.| H x I *.Z.<XT { K 4.C s | b t j  .} v.L V 8.F. .l F.4.# B & , ..H.G.<...<./.xX;XE x 1.9X                ",
"                  0X(.(.E.} y A $.9.<..X .(.1.= :.{ g B 1.qXl X.4.2.(.E.a  .4.N B /...$ <./.4.8 F } +.R z.z.k.                  ",
"                  /.P.v.T Y * X.K 3 1.7.O.f G.G.K 2 2 7.n /.<.b <. .H.O.Z N H.H.) N ~.w.s ..8 b 4.T H.U.M.,XP.                  ",
"                K.c.<.T H K P.{ O.rXb K 3 j J <.8 s j s o N 7.).H. .F./.H.= 4.F.<.w.1.N B w.O.| <.} R Y z.!.H.                  ",
"                (.K 9.T y k 6.9.8.b Z o.L.jXo.N @ j | & = j :.8.G.<.$.8.a &.^ F.N g 3.J.) 8 n g P.|.@.x @.k. X                  ",
"                9X9.9.T y K.8.%.8.{ { h 8.O.| J C B 7.) 1.{ _ Y  .$.G.F a F.a $ Z & B ) f o # , K Q.Q.b.Y *.I.                  ",
"                1.(.O.8.K H X.B J j 9 3 X o.).~.G.2 j O.) : : K <.<.a <...g N s j :.3.= ) J # j Z.%.K E u {.W. X                ",
"              9X>.:...{ ..* k { j ..3 a o. X= | o.2 h K h 8 8 g , g , wXF.N g <.:.P.G.X = o.h | L z T 6.x R.K.rX                ",
"              XX0.L K 2 L 8.9.H n O.3 4.1.3 3 N b | 8.| :.G.1.V ..a 4.N O.A N <.) b ) b h >.h % 7.H * u 6.|.(. X                ",
"                ` _ j %.a y X.f 1.G.o.o.& % a J.: B | s ) C B >... .<.a B Z  .^ g :.e.P.>.7.>.o.j 9.5.5.;X$.Q.                  ",
"                ;.7.q.L % L } d 6.w.<.:.L o K P.: & b | 4.3 ) b O.8.<.O.4.= ) ..s j 3.:.@ 7 n m 7.T K.H.H 2.4.0.                ",
"                G ;.- L f 5.H R C & f K 2 ) K >.h o & | 8.7.C 3 B : <...= B b 6 9 b ~.>.( w.f > n 9.O.6.} E./.                  ",
"                9X^.` K k L 6.O.g 2 1.G.<.J.) >._ , n <.O.:., % ^ 4.N 8 C O.) , 6 b ` 0 ` r.C - v L :.F.%.K                     ",
"                  q.K G L # 6.l.3 K | N 1.8 3 K { C 9.<.K f , & * wX^ , | o 8 6 J o.2 X > v L.( 7 h j ).d K ^.                  ",
"                    >.b N K.6.x 8.{ f = >.h J 8.n C C o.) ) K : ..Z ~.w.O.B 6 : - C o.e.;.M 0.7 + 7 n 8 3.G.J.                  ",
"                    ^.  B l @ 4 K o 2 n ....K O.j C % %.J 9.K 5 w.X b 4.C ~.6 X ; - w.^.` m ` v % 0 v O.3.kXXX                  ",
"                        s t d g $ . : K ) j K b ..j % >.a | 0 k ^ < = ) h | 8 O O ; _ 0.( m 9 6 M 0 -.~.).qX                    ",
"                      G 2 X.z d 2 f # & o.& e.o.>.: & ) 2 k 3 X.j a , s v N 8 . 9 J 0 ` ( v 6 + ^                               ",
"                      7.7 ( h J ( B ; 9 8 K ` 3 7.3 0 h % - f h , , r N o s 3.6 M [ O q e e ;                                   ",
"                      / G q.>.; >._ 9 f 2 G ` ` h 2 9 M 9 0 v 2 & N N ..s 3 ` ( ( ' w + w e w                                   ",
"                      -.,.q.^.% ;.n m 5 G 0 G K ; 5 5 L G 0 m 0 @ ^ N ^ | 6 0 [ 7 v ;.w ' q /                                   ",
"                        r.  ^.,.r.(   v   -.] m 6 7 + G ` 7 J -.a ..v h 0.M v [ 7 q ,.r.,.                                      ",
"                                ^.r.  ,.    0.( G ] M ,.q.G ;.,.;.0.` ^ L.0.-.    w                                             ",
"                                                                                                                                ",
"                                                                                                                                ",
"                                                                                                                                ",
"                                                                                                                                ",
"                                                                                                                                ",
"                                                                                                                                ",
"                                                                                                                                ",
"                                                                                                                                ",
"                                                                                                                                ",
"                                                                                                                                ",
"                                                                                                                                "
};
