/* XPM */
static char *castel_1__Photoroom1723386901[] = {
/* columns rows colors chars-per-pixel */
"64 64 249 2 ",
"   c None",
".  c #7D1C23",
"X  c #7F3D36",
"o  c #623820",
"O  c #5B2E21",
"+  c #787716",
"@  c #7A4338",
"#  c #756929",
"$  c #4A4645",
"%  c #595656",
"&  c #58564F",
"*  c #775D46",
"=  c #615A5A",
"-  c #7B4B47",
";  c #65674D",
":  c #7A6947",
">  c #68655A",
",  c #736A57",
"<  c #727653",
"1  c #695D65",
"2  c #696566",
"3  c #6D6A6B",
"4  c #686766",
"5  c #766B6B",
"6  c #79776A",
"7  c #736E70",
"8  c #757272",
"9  c #7A7574",
"0  c #7C757A",
"q  c #7C7B77",
"w  c #951A10",
"e  c #A41F00",
"r  c #973A1B",
"t  c #89330D",
"y  c #B73600",
"u  c #BD3715",
"i  c #A92A0F",
"p  c #8E3429",
"a  c #AB3923",
"s  c #B8382A",
"d  c #DA2906",
"f  c #C73805",
"g  c #D73404",
"h  c #DA3716",
"j  c #CC2A0F",
"k  c #E82904",
"l  c #F52907",
"z  c #EA3706",
"x  c #F83706",
"c  c #E62618",
"v  c #EB3817",
"b  c #FD3C12",
"n  c #FA3618",
"m  c #F92B14",
"M  c #D63A2B",
"N  c #CD342A",
"B  c #F43B28",
"V  c #D71000",
"C  c #8D4716",
"Z  c #AD4500",
"A  c #BD4600",
"S  c #B64703",
"D  c #B85700",
"F  c #A8471D",
"G  c #B15509",
"H  c #877013",
"J  c #BF620E",
"K  c #884528",
"L  c #92492F",
"P  c #BA482B",
"I  c #A34736",
"U  c #AE522E",
"Y  c #866C35",
"T  c #C94700",
"R  c #D54702",
"E  c #C85801",
"W  c #C5481A",
"Q  c #D84617",
"!  c #D5540F",
"~  c #E64906",
"^  c #F94509",
"/  c #E94A15",
"(  c #FA4616",
")  c #FA5417",
"_  c #F25108",
"`  c #D3650C",
"'  c #C74625",
"]  c #D8492B",
"[  c #D75735",
"{  c #D05031",
"}  c #E54825",
"|  c #FD4924",
" . c #FC5725",
".. c #EA5125",
"X. c #DD6020",
"o. c #EE6C31",
"O. c #E97C07",
"+. c #8F5B57",
"@. c #AB5448",
"#. c #89744F",
"$. c #AD694B",
"%. c #847A6A",
"&. c #827C74",
"*. c #827C7C",
"=. c #8A7879",
"-. c #9A716A",
";. c #B0726D",
":. c #C66A50",
">. c #F86342",
",. c #C16860",
"<. c #E05A42",
"1. c #7D827A",
"2. c #78855A",
"3. c #B58A0B",
"4. c #888422",
"5. c #9D8336",
"6. c #B09630",
"7. c #9DA43D",
"8. c #B4A52E",
"9. c #D08F0F",
"0. c #E6851A",
"q. c #EEAD14",
"w. c #D79531",
"e. c #FE902D",
"r. c #DEAB31",
"t. c #F8A929",
"y. c #F8DB07",
"u. c #FFDD17",
"i. c #E1DD0C",
"p. c #FFE501",
"a. c #FEE90A",
"s. c #F7E607",
"d. c #FCE31A",
"f. c #F0ED11",
"g. c #D8DE24",
"h. c #FFD927",
"j. c #F7C737",
"k. c #FCE629",
"l. c #FCE53B",
"z. c #F0ED34",
"x. c #8F8A57",
"c. c #B09156",
"v. c #B2A94F",
"b. c #898578",
"n. c #96897B",
"m. c #9B9278",
"M. c #908F6E",
"N. c #A89C79",
"B. c #B38B72",
"V. c #AAA27A",
"C. c #B7A777",
"Z. c #AFA869",
"A. c #FF9B41",
"S. c #FDAA48",
"D. c #FFB24A",
"F. c #FFB751",
"G. c #C5BC7B",
"H. c #DB8D69",
"J. c #FFC948",
"K. c #F8D34B",
"L. c #FFE845",
"P. c #FEEE56",
"I. c #EFEB41",
"U. c #FFD36C",
"Y. c #FFED6E",
"T. c #847E81",
"R. c #937A87",
"E. c #7A8080",
"W. c #858382",
"Q. c #8A8684",
"!. c #8C8A8B",
"~. c #8C8988",
"^. c #928D8D",
"/. c #958C85",
"(. c #94938E",
"). c #9B9686",
"_. c #959393",
"`. c #9C9A95",
"'. c #9D9B9B",
"]. c #9A9594",
"[. c #948D91",
"{. c #A59788",
"}. c #A59C93",
"|. c #A69A98",
" X c #B28F8C",
".X c #98A494",
"XX c #A8A78A",
"oX c #B6AB8A",
"OX c #BCB48A",
"+X c #ABA293",
"@X c #ABA49C",
"#X c #AAA699",
"$X c #B4AC9C",
"%X c #B4A69B",
"&X c #B9B599",
"*X c #AAA8A6",
"=X c #B4ABA4",
"-X c #B5AAA4",
";X c #BCB3A5",
":X c #BCB4AC",
">X c #B7B4A7",
",X c #B2AFB1",
"<X c #B9B7B4",
"1X c #ACB6AE",
"2X c #C89A94",
"3X c #C5B988",
"4X c #C7BB98",
"5X c #C1AD8F",
"6X c #FFAA85",
"7X c #C1BCA5",
"8X c #C3B5AC",
"9X c #C4BCAC",
"0X c #C4BCB3",
"qX c #C5B9B6",
"wX c #D5B2AE",
"eX c #E2ACAA",
"rX c #BAC2B7",
"tX c #CDC59A",
"yX c #CAC2AC",
"uX c #C9C8A9",
"iX c #C5C1B4",
"pX c #CAC3BB",
"aX c #C9C5B6",
"sX c #D4C7B9",
"dX c #D0D2B1",
"fX c #ADA9C2",
"gX c #CAC6C2",
"hX c #CECAC4",
"jX c #C9C8C6",
"kX c #D5CCC7",
"lX c #D5D7C6",
"zX c #CBCCD6",
"xX c #DAD8D5",
"cX c #D0CFCB",
"vX c #E2DACB",
"bX c #E2DDDB",
"nX c #F9CEC7",
"mX c #D2E3CC",
"MX c #E5E1CA",
"NX c #E4E2DD",
"BX c #EAE0D6",
"VX c #D7D5E8",
"CX c #D9D8F6",
"ZX c #E2DAE6",
"AX c #DCEBEA",
"SX c #E8E7E5",
"DX c #F9F7EA",
"FX c #FBF8F5",
"GX c #F5E8F4",
/* pixels */
"                                                                                                                                ",
"                                                                                                                                ",
"                                                                                                                                ",
"                                                                                                                                ",
"                                                                                                                                ",
"                                                                                                                                ",
"                                                                                                                                ",
"                                                                                                                                ",
"                                                                                                                                ",
"                                                                                Q.W.4 0                                         ",
"                                                                              *.3 T.W.7 2                                       ",
"                                                                              _.W.8 3 q 8 $                                     ",
"              4 (.  ~.(.                                          ^.[.          3 0 *.~.T.1                                     ",
"              > 6       b.                                    b.3 % = ^.        2 7 3 = %                                       ",
"              .X          ~.W.`.q                             % & W.*.2 1         0 W.                                          ",
"                ~.              (.          X +.K ,.;.-.@.-.* m.9 !.2 1 3                                                       ",
"                b.                8     L F ' ] h M c M N F F Y 8 4 0 *.=.7                                                     ",
"                *X`.              %.  I [ v ( k b b B n v ..! C ; b.-.-.;.- ;.                  _.                              ",
"                ,X&               B.t { v l b x ( d z ^ b ^ _ R U c.I F r p I p I . ;.-.O b.).> = _.                            ",
"                  4 3             r ] z x b l _ ~ T T / ^ z x ) X.T S >.[ [ $.I I @.p @     ; /.'.9 ^.                          ",
"                  _.$           ;.' >.h ( z ~ f A ` R f / b k b d  . .h S U $.#.-.+.+.    -X=.5 9 4 W.      '.                  ",
"                    $           i M ] f R T Z 9.F.t.X.R )  .v  .) _ ( | ] t # 2.2 %         |.[.8         !.3 %                 ",
"                    2 ~.        F X.E 0.J.3.K.Y.Y.w.D A T f f W S A /  .{ @.: ; 4                     4 T.3 [.!.3               ",
"                    @XQ.  :X}.+.C i t w.6.v.7.4.7.H G E D 0.S.r.r.F./ ..>.[ #                       !._.jX,X,X<X'.8             ",
"            8 1XqX.X,XgX*X].|./. X2X2XB. X/.*..X&X# 6.j.h.k.u.k.L.j.T )  .h { 6XH.,.:.                0 '.'.!.*X,X%             ",
"          ,X*XFXGXjXcXFXDXFXFXxXjXZXGXGXGXZXCXGXAXM.8.l.d.p.y.p.k.9.T ^ ^ z j S e j y P U Y           ].1 8 !.'.4               ",
"          1X*XVXxX<XcXSXNXbXSXxXmXdXMXMXkXzXCXVXmXZ.8.l.y.p.p.a.h.E R _ ^ ^ ) / ) ( v h W U K o         7 3 3 3 0               ",
"          jX*XNXSXhXxXbXkXkXNXxXAXmXlXvXvXxXVXVXMXZ.8.l.y.p.a.d.q.Z ~ _ x z ( ( x l b z ' [ $.-.Q.          '.!.                ",
"            ~.SXxXjXjXxXbXNXSXSXzXAXNXNXDXNXzXNXDXc.3.L.k.d.k.L.9.D R g ( ( l l l B l ..{ r ;.-.=                               ",
"            q b.*X*X,XpXqXpXkXzXfXVXxXlXmXrX1XmXOX5.j.l.u.k.l.P.r.D.o.g v | n n l ( k ' $.R.2XR.|.9                             ",
"              3 8 W.(.(.~.Q.].*X*X,X$XXXXX.X.X1X< + P.h.y.k.z.z.Y.U.e.Q d k l l l ( ] F @.{.|.R.9 T.                            ",
"              3 gX<X*X=X>X0XpXpXjX,X>XuXdXlXjXrXtXH l.s.a.a.i.z.P.w.Z Q c m m l d Q F     &.R.1                                 ",
"              &.+X).$X$X).$X%X{.|.-X7XyXsXlXcXpXtX4.f.a.a.a.y.k.J.U.e.e / v c c N a                                             ",
"              &.M.&Xb., &X8X).%X;X:X0XyXyXpXpX9XN.+ f.f.y.s.u.h.J.S.E T ..B B j w p                                             ",
"              b.).9Xb., $X%X%X8X8X8X7X;X9XaXjXiXdX+ g.f.f.f.k.k.t.y f / j j s s                                                 ",
"              b.).iX/.%.$X{.%X-XqX8X$X$X>XrXcXlXMX+ g.i.u.k.k.q.T f ~ j / s s                                                   ",
"              b./.aXn.6 qX%X{.}.8X8X%X%X=X<XjXhX&X# I.d.k.L.t.E R ( z v j P                                                     ",
"              b.@XaX}.(.-X;XsXqX%X&X;XyXpXgXhXsXsXH K.L.j.t.0.~ z n k h s                                                       ",
"              *.:X0XqX;X|.8XvXbX+X>XdXdXhXhXkXsXnX@ w.e.e.~ g ^ b V B M U                                                       ",
"              &.(.pX=X|.sXvX}.9X$XuXdXdX<XqXwX4XeXp J A R z z l n c M w a                                                       ",
"              `.Q.}.@X}.kX9X9X0X7XuX&XdXiX*.{.wX X. U E Q h c c c M s L                                                         ",
"              ].>XkX0X8X;X+X).+XXXN.# M.iX`.n.%XwXp $.F P ' N M { w p                                                           ",
"              =X/.aX:XyX+X).m.oXOX3Xx.< @X'.M.yX%Xn.    @.p p $.,.                                                              ",
"              ,X4 #X$XyX+XN.oX4XtXtXtXx.b.!.M.;X`.&.                                                                            ",
"              /./.0XyX;XOXm.5XOXOXC.C.x.b.,XXXXXb.1.                                                                            ",
"              9 @XdXyX&XoXM.tXOXG.Z.v.x.%.qX7XoX(.E.                                                                            ",
"              &.+XiX$XOXV.m.tXtX5XZ.v.#., ].XXOX@X!.                                                                            ",
"              &.$XvX7XdXXXV.tX3X3XC.c.x.{.+Xm.oX-X!.                                                                            ",
"              > 9 +X$X;Xm.;X&XtX3XC.N.V. X%X&X-XqX3                                                                             ",
"              & n.#X$X;X).uXyXuXoXC.N.N.N.{.-X-X*.&                                                                             ",
"              `.q n.q b.= b.b.M.#.: , , , , 9 9 *.                                                                              ",
"                                                                                                                                ",
"                                                                                                                                ",
"                                                                                                                                ",
"                                                                                                                                ",
"                                                                                                                                ",
"                                                                                                                                ",
"                                                                                                                                ",
"                                                                                                                                ",
"                                                                                                                                ",
"                                                                                                                                ",
"                                                                                                                                ",
"                                                                                                                                ",
"                                                                                                                                "
};
