/* XPM */
static char *e24e75d574984c9db4a19ad4b7aa42154FNFEGEf0OHtR3Jk[] = {
/* columns rows colors chars-per-pixel */
"64 64 128 2 ",
"   c None",
".  c #FE471C",
"X  c #FE491E",
"o  c #FE4B20",
"O  c #FD5222",
"+  c #FD5C23",
"@  c #FD562C",
"#  c #FD582F",
"$  c #FD5C33",
"%  c #FD6426",
"&  c #FD6B27",
"*  c #FD6C28",
"=  c #FD742A",
"-  c #FD7C2B",
";  c #FC633B",
":  c #FC6B38",
">  c #FC6741",
",  c #FC6B45",
"<  c #FC6E4A",
"1  c #FD724E",
"2  c #FC7A4E",
"3  c #FC7551",
"4  c #FC7955",
"5  c #FD7B5A",
"6  c #FD842E",
"7  c #FE8D2F",
"8  c #FE902D",
"9  c #FC8030",
"0  c #FE8F30",
"q  c #FE9431",
"w  c #FF9E33",
"e  c #FFA034",
"r  c #FEA738",
"t  c #FEAA3A",
"y  c #FEB43F",
"u  c #FB805F",
"i  c #FC8C5F",
"p  c #FEB640",
"a  c #FEBA44",
"s  c #FCA452",
"d  c #FC8362",
"f  c #FB8668",
"g  c #FC8A6C",
"h  c #FD8D71",
"j  c #FE9072",
"k  c #FB9174",
"l  c #FB9777",
"z  c #FB9973",
"x  c #FD9479",
"c  c #FE957C",
"v  c #FCAF64",
"b  c #FEC248",
"n  c #FEC449",
"m  c #FEC74B",
"M  c #FEC84C",
"N  c #FEC94E",
"B  c #FECB4E",
"V  c #FECD4F",
"C  c #FECE4F",
"Z  c #FEC94C",
"A  c #FECE50",
"S  c #FFD151",
"D  c #FED251",
"F  c #FED352",
"G  c #FFD352",
"H  c #FFD553",
"J  c #FFD554",
"K  c #FED654",
"L  c #FED754",
"P  c #FFD754",
"I  c #FFD252",
"U  c #FFD855",
"Y  c #FFD956",
"T  c #FEDA57",
"R  c #FFDB57",
"E  c #FFDD56",
"W  c #FFDD57",
"Q  c #FFDD57",
"!  c #FEDC58",
"~  c #FFDC58",
"^  c #FFDD58",
"/  c #FFDE58",
"(  c #FFDE59",
")  c #FEDF5F",
"_  c #FFDE59",
"`  c #FEE05D",
"'  c #FEDF60",
"]  c #FCD67E",
"[  c #FEE065",
"{  c #FEE167",
"}  c #FEE26C",
"|  c #FEE36F",
" . c #FEE169",
".. c #FEE471",
"X. c #FDE473",
"o. c #FDE578",
"O. c #FC9E83",
"+. c #FBA78F",
"@. c #FBA289",
"#. c #FCA88E",
"$. c #FDA790",
"%. c #FCA791",
"&. c #FBA991",
"*. c #FCB697",
"=. c #FCB7A5",
"-. c #FDE785",
";. c #FDE884",
":. c #FDEB8D",
">. c #FDEC92",
",. c #FBE19B",
"<. c #FCEF9D",
"1. c #FBCEA2",
"2. c #FCC2B3",
"3. c #FBC1B1",
"4. c #FCC7B9",
"5. c #FCE2AF",
"6. c #FCF2A6",
"7. c #FCF3AC",
"8. c #FCF6B7",
"9. c #FBF6B6",
"0. c #FCF6BB",
"q. c #FCF8BD",
"w. c #FCF8BC",
"e. c #FBF8C0",
"r. c #FBFBCB",
"t. c #FCFBCC",
"y. c #FCFCCD",
"u. c #FCFBCB",
/* pixels */
"                                                                                                                                ",
"                                                                                                                                ",
"                                                                                                                                ",
"                                                                                                                                ",
"                                                                                                                                ",
"                                                                                                                                ",
"                                                                                                                                ",
"                                                                                                                                ",
"                                                                                                                                ",
"                                                                                                                                ",
"                                                                                                                                ",
"                                                          2.4.                                                                  ",
"                                                          c 5                                                                   ",
"                                                          f . h                                                                 ",
"                                                          1 . o O.                                                              ",
"                                                          $ . . @ g                                                             ",
"                                                        u . o o . ,                                                             ",
"                                                        3 . o o o . x                                                           ",
"                                                      3 o o o o o . #                                                           ",
"                                                      , . o o o o o . k                                                         ",
"                                                    f . o o o o o o . ;                                                         ",
"                                                  f O . o o o % o o o o                                                         ",
"                                                f $ . o o o + q & o o . j                                                       ",
"                                                , . o o o o 6 e q O o . d                                                       ",
"                                              5 . o o o o * w e e = o . 4                                                       ",
"                                            g . o o o o + q e e e 7 O . 4           g                                           ",
"                                          f o o o o o O 6 e e e e w + . d           1 g                                         ",
"                                        f @ . o o o o - e e e e e w % . h           3 . d                                       ",
"                                        , . o o o o = w e e e e e w % . g           , . ;                                       ",
"                                      d . o o o o * w e e e e e e w % . 4           @ . . ,                                     ",
"                                      $ . o o o % q e e e e e e e e * . $         o . o . >                                     ",
"                                    u . o o o O 0 e e e e e e e e e = o . u     5 @ . o o o                                     ",
"                                    $ . o o o 6 e e e e e e e e t e 7 O o . @ $ o . o o o . 3                                   ",
"                                    . o o o * w e e e e e e e p M e w = o o . . o o + O o . 3                                   ",
"                                  < . o o O q e e e e e e w t L L t e w * O o o O * q % o . ;                                   ",
"                                  < . o o * w e e e e e e e b ^ ^ a w e w 7 - - 7 w e = o . #                                   ",
"                                  $ . o o 6 e e e e e e e r S ^ ^ S t w e e e e e e e 6 o . @                                   ",
"                                  # . o + w e e e e e e w t T ^ ^ ^ M e e e e e e e e 7 O . @                                   ",
"                                  @ . o * e e e e e e e w t T ^ ^ ^ ^ a e e e e e e e q O . $                                   ",
"                                  # . o = e e e e e t r w t L ^ ^ ^ ^ T p e e e e e e q O . ,                                   ",
"                                  ; . o - e e e e r M r w r S ^ ^ ^ ^ ^ L t w e e e e 7 O . d                                   ",
"                                  < . o - e e e w a T t w r H ^ W W ^ ^ ^ M e e e e e 6 o . +.                                  ",
"                                    . o = e e e e V ^ A p M ^ ^ | { W ^ ^ ^ y w e e e - . @ g                                   ",
"                                    # . % w e e r H ^ ^ ^ ^ ^ ^ <.6.) ^ ^ ^ m e e e w % . 5                                     ",
"                                    ; . O q e w t T ^ ^ ^ ^ W ..e.r.:.^ ^ ^ V e e e 0 O o $.                                    ",
"                                      $ . - e e t L ^ ^ ^ W ..8.y.t.q.| W ^ S r e e * . d                                       ",
"                                        o O q e r H ^ ^ W o.0.t.u.u.y.>.W ^ S r e 7 X > g                                       ",
"                                        4 o % w e M ^ W { 0.t.u.u.u.y.7.^ ^ m e q + $ @.                                        ",
"                                          f @ * w p W W ;.u.u.u.u.u.t.9.' T y q % ; &.                                          ",
"                                              ; % q M W ;.u.u.u.u.u.y.7.` m 8 % d #.                                            ",
"                                                l : 6 a  .q.y.u.u.t.u.-.a 9 2 =.                                                ",
"                                                    $.i s ] 0.u.u.r.,.v z 3.*.                                                  ",
"                                                          1.5.                                                                  ",
"                                                                                                                                ",
"                                                                                                                                ",
"                                                                                                                                ",
"                                                                                                                                ",
"                                                                                                                                ",
"                                                                                                                                ",
"                                                                                                                                ",
"                                                                                                                                ",
"                                                                                                                                ",
"                                                                                                                                ",
"                                                                                                                                "
};
