/* XPM */
static char *new_ground_1_1723381769[] = {
/* columns rows colors chars-per-pixel */
"64 64 41 1 ",
"  c #745038",
". c #7F5D44",
"X c #825E45",
"o c #86634C",
"O c #8A664E",
"+ c #8C694F",
"@ c #8A6751",
"# c #8D6A54",
"$ c #916D56",
"% c #926F59",
"& c #947157",
"* c #95725C",
"= c #99765D",
"- c #9C795E",
"; c #A1775F",
": c #A0785F",
"> c #977762",
", c #9A7661",
"< c #9D7A63",
"1 c #9F7E69",
"2 c #A27D65",
"3 c #A97F67",
"4 c #A27E69",
"5 c #A58166",
"6 c #A88067",
"7 c #A5826B",
"8 c #AA856B",
"9 c #AD896E",
"0 c #B0886F",
"q c #A68670",
"w c #A98671",
"e c #AD8A72",
"r c #AF8C78",
"t c #B18D73",
"y c #B18E78",
"u c #B49076",
"i c #B6927A",
"p c #B9957C",
"a c #BC9A81",
"s c #CFAA8F",
"d c #D0AB90",
/* pixels */
"*,=*%%%%%%%%%<44&&&+&&&&>&+++>>&+&%++%%%##%,%%%*#o@%>*#@@@#%*>%@",
"%*,*%%,<y4%,,,<4&&&>>&&&>&+.++>>&+++%%%+%%,,,%%%@@@%%#@@@@#@%**#",
"%*,*##%<41*%>%%@+>&>&>>&>>>+..&-+++&>#++%%%,,%%#@@#%%@o#%%#@o##%",
",>**%#%,,44%%44*55>&&>5>555&+++>+++>>#@>%%#%%%%@###%##@%**%@oo@%",
"4*%%>%%%,,,%$%<w5>5&>&>5>55>&&&&>++>1>#>,##%>,%%%##%%%%%###@oo%>",
"4*%,44<,<@%44oo4&&>555>&&&>>>5>&5>%5>%#%<%#%*,<<%%#%,***##%#@o@*",
"<*%<41<<w,,yy,%,&>555>&&&&&+&5->+##>%>%#,%%,,,<<%%%%%%%<,,%%@oo#",
",%*<4,%<4<#.@<<>>>&&&&>55>&+&-5>.>>>>5>>,%%%,%%,*>,*%#%<,%##@@@%",
",<44,%>1<<%#%,<<5>&#>5&&#&55+-5##qq5>>1==<%@*%%4,%*%%%*%,*%@#**%",
"*,,*###%44<%,4<%&5>55>>55*+#&77=#55>$><1,<%%<*%4,%,%%,,%***#%*%#",
"<,%%%,<4q4,<4q<##>&>&5>>**##-55q%>5%*%>7,>$%,,%,1%,,%,>,,,%%%%%#",
"<<,*<4yi4,%%wr4,5555+&>5.&=>5>=u7>55>%>><>$%,*%%<,,%@@>>,,%##%%*",
"%*%##,ww4*$%4yww55%>.%%%$5558**eq55>>>%>4,%***,,,,,,oX,a,%%%%%%%",
"*<,@o%,47,%*4wwr>5%%5%55q5%5-*&5q>..>>>74**%#%,,,,,,@@,3#%,41,%%",
"<4,%%,4<4<,4444w5#>#5>5555%##$**q>.>577>4%,,@@>%1%,,%#%,%%,1<%%%",
">,%@%44<>,177<,45>5>55555555o$4455qq5>>#7,7q%%<,4%%4,#@o,,,,%#%,",
"<4<**<<*w<,<7www<<<44<44444,>%,<44<4<<44*@*4>*<,,,,,,,*,#%*%,,,%",
"444%*<<>w1*,<44wwwq74,,<444<<<<<,444441<,#,4<,4,,,%,,,*%,,,*,44%",
"4q4*%<4,w4<,,<4wrw474<<44414441<,<444<<<,%,4<<<*,,%%>,,*,>*,444%",
"44<%*444w44<,,14744774,<<<444<<4<<1,**,<<**,,<<*,,*,,,,,,*%,,4,*",
",<4*<4w4<441,*,<747wq<,**<44<,,<444<,>,<44,,444<14,,4444******,>",
"><<<<44<<444<<1<414ww4<1,<44<,*,,<1444,%44%%44<4<<4<,444*%,,*%*4",
"<4<>,44,<444<44<,<4ww8qw4<<<<<*%%*><44,%<4%#44,>,,44,,<4,**,>%,4",
"444>,<<*,,,%%,<,7444444444*,14%@,**,4441,4%%4w<,@*,,,%,,,,%*,*,4",
"444<<4,,>,44wwwwqww414<4<44,%%,4*>*<4w34<<**4aa44*%%*>,,4,%,4,44",
"444441,*<4444qwwqwww7w4<148444<>%*<,44444,*,44ww<,,,44,*,,,,4,,<",
"4444<<,*44<<<<4844w8w74%<1444w<%*><,><444>%24,<r44<4444**444,,<,",
"4<,<4<<<4<<,<144<144q7<%44<,444,44,**,,<<<<1<*<4w4,,444,%444*><<",
"4,,4444w44444www4777ww7,wq44<4q44<>*,,<,,44<<44,34,>,4,,*444**<<",
"4<,<414ww44wqwwwww77qew4244444444>%,44<1144<1w4*4<,<4,*%,44,,,,<",
"w<,<4,,4wq4444q447q447w4,441<4444<1444<4ww444<<,,<<<4,*%4>,44,,,",
"w<,44<44yyww4www47874qq7444<<4q844434>><yw444%*444<,**,44*,444>,",
"3<,4w441q55qqqeqe995q999444<1wa444111>>2555&5555555.*%>4**,4444,",
"4,,4w4qqq5>555q599977eq9wr444414q41>>>==5555555555qq<*<4,444444,",
"<><4447eqq5q55q9q55789q9<<<444q4rrq17q8<55555555>7774<244444444,",
"44,<<<7eq7qq>59q555559q5,$%1r44w1q11>75*5555555577774<2<44;,<<<4",
"4<,<>>57q577-555555+5885e<&1q444>75557>%555555+55577<<<=4,,,<<44",
",%,455>>5577>5q5555579q8r2=,441,q77q755555.55+557>55<<<-,,,4,<43",
"%#,455&577qq>59955559er821<,,41,.q575%#>555555557>><>-<<44;;,;43",
"***;*+5qqq75+>q955558tt818w4<44,q>7q7>%555+5555577>>=127;444,,<4",
"332<=*=<99555q9955999p959yyyqqqq>>.aq5>>>5555555tw5<--584;,242=;",
"343422<3u9959u99555559qq9qqeeqq7>>>qqq55qq55559555555-5534,2,**2",
"4448723855-59u995555q599y8qry71<>>>qqq5q555555552<555-5544<;&&=2",
"43288228555999q5qquu9559y77ee7>7q>qq555q>5&555559755---534;,*&*=",
"55555-28uuuuu959999u9559857ew17r1>>q>>5q555q555585-----555--;;--",
"-&&5522995uuu59u95995qua9qqeq<1qqq7>7qqq>5555555-=-25&&-8555383-",
"5++-5-:9-&-995599999q9uawere81>*qq>77qq55>5555555---55-&59555555",
"-XX+&=5855-9u5599uu9q9q1><78we7*qqq>7q>>>555555595:---55555-=:55",
"+s5.5-&:66669999t88889555589999975552--5;;0000;05-&55=2223$52&72",
"5s0+:&&000999990997889tu5558ttt9525555:8;3u0303098&57-2<*52e8,5<",
"&0u5:5:u09996999558889tu5555eut9955585880303333t77*-<=2=O<585=2<",
"++9656-t995566905599e99855-589e9pt555:550303;030-5=-<=3=+<31<<3<",
"5&6656-99996999ue9etut855555589uu85*--558;06;3;627<22<7<=7e6797<",
"655:555099999699t8789t9988t9859u985--590030633;;36<43=2=22te9e-&",
"56++&:60999669698555799tetue889t99855800060333;;27-62&<<=&8723$*",
"+6&5656996999000558999etutt999999ut85-5:6;8:;03044-w8=27%#<<*<%0",
"-&+-5569:6969uu9t88589988upt858t55555555:680063322,22&$2=9r8<$-y",
"::&--:6969966996985555559855898-858755:-:;368006==*232#X=683<&*9",
"6:-&&-:996655665t985558785--585=999t855:;;380003$242@X%2<2<2=$$2",
"::--::59955:555598758889588558855899985563380t333##2w3&#<<&%=$O$",
"9:-569695:55696655555588998559ut555885523;330033y%X=<%&42=%&=$$&",
"6:---::5555999995555558895&&5985789898552;;333333224@ @p&=&&--=2",
"---:---555599:698885-5885-&&588-tu0u9888;3333333$$=332OX&2&==&$2",
"&-999::66659:-:68885---5559889tt8899888632;2;32322%OO23,*22*&OO%"
};
