/* XPM */
static char *_053adfb929d4b2efed9ea93c60d11b4RKAssh9zvnPinvT5[] = {
/* columns rows colors chars-per-pixel */
"64 64 101 2 ",
"   c None",
".  c black",
"X  c #010101",
"o  c #020202",
"O  c gray1",
"+  c #040404",
"@  c gray2",
"#  c #060606",
"$  c #070707",
"%  c gray3",
"&  c #090909",
"*  c gray4",
"=  c #0B0B0B",
"-  c #0C0C0C",
";  c gray5",
":  c gray6",
">  c #101010",
",  c #111111",
"<  c gray7",
"1  c gray8",
"2  c #151515",
"3  c #161616",
"4  c gray9",
"5  c #181818",
"6  c #191919",
"7  c gray11",
"8  c #1D1D1D",
"9  c #1E1E1E",
"0  c gray12",
"q  c gray13",
"w  c #222222",
"e  c gray14",
"r  c #252525",
"t  c gray15",
"y  c #272727",
"u  c #282828",
"i  c gray16",
"p  c #2A2A2A",
"a  c gray17",
"s  c #2C2C2C",
"d  c #2D2D2D",
"f  c gray18",
"g  c #2F2F2F",
"h  c gray19",
"j  c #323232",
"k  c gray20",
"l  c gray21",
"z  c #373737",
"x  c gray22",
"c  c #393939",
"v  c #3A3A3A",
"b  c gray23",
"n  c #3C3C3C",
"m  c gray24",
"M  c #3E3E3E",
"N  c #3F3F3F",
"B  c gray25",
"V  c #414141",
"C  c gray26",
"Z  c #434343",
"A  c #444444",
"S  c gray27",
"D  c gray28",
"F  c #484848",
"G  c gray29",
"H  c #4B4B4B",
"J  c #4C4C4C",
"K  c gray30",
"L  c #4E4E4E",
"P  c #505050",
"I  c gray32",
"U  c #535353",
"Y  c #565656",
"T  c gray34",
"R  c #585858",
"E  c gray35",
"W  c #5A5A5A",
"Q  c #5B5B5B",
"!  c gray36",
"~  c #5D5D5D",
"^  c gray37",
"/  c #5F5F5F",
"(  c #606060",
")  c #626262",
"_  c #656565",
"`  c gray40",
"'  c #676767",
"]  c #686868",
"[  c #6A6A6A",
"{  c gray43",
"}  c #6F6F6F",
"|  c gray44",
" . c #717171",
".. c #747474",
"X. c gray46",
"o. c #777777",
"O. c gray48",
"+. c #7E7E7E",
"@. c #838383",
"#. c #8B8B8B",
"$. c #AAAAAA",
/* pixels */
"                                                                                                                                ",
"                                                                                                                                ",
"                                                                                                                                ",
"                                                                                                                                ",
"                                                                                                                                ",
"                                                                                                                                ",
"                                                                                                                                ",
"                                                                                                                                ",
"                                                                                                                                ",
"                                                                                                                                ",
"                                                                                                                                ",
"                                                                                                                                ",
"                                                                                                                                ",
"                                                              3 k k t                                                           ",
"                                                              O O O O t                                                         ",
"                                                            3 O O O O %                                                         ",
"                                                            O O O O O O t                                                       ",
"                                                            O O O O O O S             p                                         ",
"                                                            O O O O O O v             O Y                                       ",
"                                                            O O O O O O Z             O N                                       ",
"                                                            O O O O O O ,             :                                         ",
"                                                            O O O O O :             5 s                                         ",
"                                                              O O O O               3 /                                         ",
"                                                                % :                 :                                           ",
"                                                                : p               7 s                                           ",
"                                                              t O @ v / E         5 Z                                           ",
"                                                            k @ O q N 3 , s / ` E :                                             ",
"                                                          z 5 q O )       z t , % k                                             ",
"                                                        Z 3 s S O {                                                             ",
"                                                      I :     k O |                                                             ",
"                                                    L : p     3 O ..                                                            ",
"                                                  S % q       % O `                                                             ",
"                                                S @ 5       7 O O E                                                             ",
"                                              H @ 3         Z O O v                                                             ",
"                                              k k           N O O                                                               ",
"                                              H k           v O @                                                               ",
"                                              / E           7 O %                                                               ",
"                                              | I           : O %                                                               ",
"                                              +.S         s @ O :                                                               ",
"                                              ` k         ` O O : 7                                                             ",
"                                                t         ` O 3 , , 7 Z N                                                       ",
"                                                t         S L     S ..I t 3 , s                                                 ",
"                                                7         N                 [ 5                                                 ",
"                                                p ,       S                 ..s                                                 ",
"                                                E k     #./                 / Z                                                 ",
"                                                        [ @.                Z /                                                 ",
"                                                        H {                 t +.                                                ",
"                                                        v                   3 +.                                                ",
"                                                        N                   ,                                                   ",
"                                                      { Y                 v 7                                                   ",
"                                                      / O.                I s                                                   ",
"                                                    s 3 E                 v H                                                   ",
"                                                  s , [                   7 `                                                   ",
"                                                7 q /                     , `                                                   ",
"                                            p @ Z                         % S                                                   ",
"                                          t % )                         v ,                                                     ",
"                                      v % 3 L                           N 7                                                     ",
"                                  Z t O s                               s k                                                     ",
"                                  / O L                                 7 I                                                     ",
"                                  $.S                                   % {                                                     ",
"                                                                        O E                                                     ",
"                                                                      : @                                                       ",
"                                                                        p                                                       ",
"                                                                                                                                "
};
